# vtk DataFile Version 3.0
tree20
ASCII
DATASET UNSTRUCTURED_GRID

POINTS 21 float
0 0 0
1 0 0
1 1 0
2 -0.5 0
2 0.5 0
2 1.5 0
2 2.5 0
3 -0.75 0
3 -0.25 0
3 0.25 0
3 0.75 0
3 1.25 0
3 1.75 0
3 2.25 0
3 2.75 0
4 -0.875 0
4 -0.625 0
4 -0.375 0
4 -0.125 0
4 0.125 0
-1 0 0

CELLS 20 60
2 0 1
2 0 2
2 1 3
2 1 4
2 2 5
2 2 6
2 3 7
2 3 8
2 4 9
2 4 10
2 5 11
2 5 12
2 6 13
2 6 14
2 7 15
2 7 16
2 8 17
2 8 18
2 9 19
2 0 20

CELL_TYPES 20
4
4
4
4
4
4
4
4
4
4
4
4
4
4
4
4
4
4
4
4

CELL_DATA 20
SCALARS labels double
LOOKUP_TABLE default
1
1
1
1
1
1
1
1
1
1
1
1
1
1
1
1
1
1
1
2

FIELD FieldData 1
thickness 1 20 double
1
1
1
1
1
1
1
1
1
1
1
1
1
1
1
1
1
1
1
1